<svg xmlns="http://www.w3.org/2000/svg" viewBox="0 0 64 64" fill="none">
  <!-- Event Venue Icon - Gathering flame/fire bowl -->
  <defs>
    <linearGradient id="venueGradient" x1="0%" y1="100%" x2="0%" y2="0%">
      <stop offset="0%" stop-color="#C65D3B"/>
      <stop offset="50%" stop-color="#D4764E"/>
      <stop offset="100%" stop-color="#E8A84C"/>
    </linearGradient>
  </defs>

  <!-- Fire bowl base -->
  <path d="M16 44 Q16 52 24 54 L40 54 Q48 52 48 44" fill="none" stroke="#8B7355" stroke-width="2.5" stroke-linecap="round"/>
  <path d="M20 54 L20 58 M44 54 L44 58" stroke="#8B7355" stroke-width="2.5" stroke-linecap="round"/>
  <path d="M16 58 L48 58" stroke="#8B7355" stroke-width="2.5" stroke-linecap="round"/>

  <!-- Main flame -->
  <path d="M32 14 Q40 26 38 34 Q36 40 32 42 Q28 40 26 34 Q24 26 32 14" fill="url(#venueGradient)"/>

  <!-- Left flame -->
  <path d="M24 24 Q28 32 26 38 Q24 42 22 40 Q18 36 20 30 Q22 24 24 24" fill="#C65D3B" opacity="0.8"/>

  <!-- Right flame -->
  <path d="M40 24 Q36 32 38 38 Q40 42 42 40 Q46 36 44 30 Q42 24 40 24" fill="#C65D3B" opacity="0.8"/>

  <!-- Inner flame glow -->
  <path d="M32 22 Q36 30 34 36 Q32 40 32 40 Q32 40 30 36 Q28 30 32 22" fill="#E8A84C" opacity="0.6"/>

  <!-- Spark particles -->
  <circle cx="28" cy="18" r="1" fill="#E8A84C" opacity="0.6"/>
  <circle cx="38" cy="16" r="1.2" fill="#E8A84C" opacity="0.5"/>
  <circle cx="24" cy="22" r="0.8" fill="#D4764E" opacity="0.4"/>
  <circle cx="42" cy="20" r="1" fill="#D4764E" opacity="0.4"/>
</svg>
